<svg width="128" height="128" viewBox="0 0 128 128" fill="none" xmlns="http://www.w3.org/2000/svg">
  <rect width="128" height="128" rx="28" fill="#0B172A"/>
  <path d="M24 63.5C35.2 42.1 58.5 29 84.3 29C92.2 29 100 30.3 107 32.8C101.8 37.5 98.2 43.8 96.8 50.8C95.7 56.3 91 60.3 85.4 60.3H65.6C60.9 60.3 56.6 62.7 53.9 66.7L48.6 74.4C45.6 78.8 40.6 81.4 35.2 81.4H18.9C18.7 75.2 20.4 69.1 24 63.5Z" fill="#55D6BE"/>
  <path d="M110 64.6C110 90.4 89.4 111 63.6 111C44 111 27.2 98.8 20.3 81.5H34.7C42.5 81.5 49.8 77.8 54.4 71.5L59.3 64.7C61.7 61.3 65.6 59.2 69.8 59.2H87.1C94.2 59.2 100.5 54.2 102 47.3C102.9 42.9 105 38.8 108.1 35.4C109.3 37.3 110 39.6 110 42V64.6Z" fill="#2FB2E2"/>
  <circle cx="82" cy="47" r="4.5" fill="#0B172A"/>
</svg>
